<svg xmlns="http://www.w3.org/2000/svg"><defs><symbol id="pb-mouse" viewBox="0 0 24 24"><g fill="none" stroke="currentColor" stroke-width="1.7" stroke-linecap="round" stroke-linejoin="round"><rect x="6" y="2" width="12" height="20" rx="6"/><path d="M12 2v6"/></g></symbol><symbol id="pb-keyboard" viewBox="0 0 24 24"><g fill="none" stroke="currentColor" stroke-width="1.7" stroke-linecap="round" stroke-linejoin="round"><rect x="2" y="5" width="20" height="14" rx="3"/><path d="M6 9h.01M10 9h.01M14 9h.01M18 9h.01M6 12h.01M10 12h.01M14 12h.01M18 12h.01M7 16h10"/></g></symbol><symbol id="pb-usb" viewBox="0 0 24 24"><g fill="none" stroke="currentColor" stroke-width="1.7" stroke-linecap="round" stroke-linejoin="round"><path d="M12 21V3m-3 3 3-3 3 3M12 16l-5-5V8m5 5 5-4V6"/><circle cx="7" cy="7" r="1"/><path d="M16 3h3v3h-3Z"/></g></symbol><symbol id="pb-link" viewBox="0 0 24 24"><g fill="none" stroke="currentColor" stroke-width="1.7" stroke-linecap="round" stroke-linejoin="round"><path d="m10 13 4-4m-5 6-2 2a4 4 0 0 1-6-6l4-4a4 4 0 0 1 6 0m2 2 2-2a4 4 0 0 1 6 6l-4 4a4 4 0 0 1-6 0"/></g></symbol><symbol id="pb-check" viewBox="0 0 24 24"><g fill="none" stroke="currentColor" stroke-width="1.7" stroke-linecap="round" stroke-linejoin="round"><path d="m5 12 4 4L19 6"/></g></symbol><symbol id="pb-shield" viewBox="0 0 24 24"><g fill="none" stroke="currentColor" stroke-width="1.7" stroke-linecap="round" stroke-linejoin="round"><path d="m12 2 8 3v6c0 6-8 11-8 11S4 17 4 11V5Z"/><path d="m8 11 3 3 5-5"/></g></symbol><symbol id="pb-close" viewBox="0 0 24 24"><g fill="none" stroke="currentColor" stroke-width="1.7" stroke-linecap="round" stroke-linejoin="round"><path d="m6 6 12 12M6 18 18 6"/></g></symbol><symbol id="pb-download" viewBox="0 0 24 24"><g fill="none" stroke="currentColor" stroke-width="1.7" stroke-linecap="round" stroke-linejoin="round"><path d="M12 3v12m-5-5 5 5 5-5M4 16v5h16v-5"/></g></symbol><symbol id="pb-play" viewBox="0 0 24 24"><g fill="none" stroke="currentColor" stroke-width="1.7" stroke-linecap="round" stroke-linejoin="round"><path d="m9 5 11 7-11 7V5Z"/></g></symbol><symbol id="pb-devices" viewBox="0 0 24 24"><g fill="none" stroke="currentColor" stroke-width="1.7" stroke-linecap="round" stroke-linejoin="round"><rect x="2" y="4" width="13" height="11" rx="2"/><path d="M5 20h7m-4-5v5"/><rect x="16" y="8" width="6" height="13" rx="1.5"/></g></symbol><symbol id="pb-menu" viewBox="0 0 24 24"><g fill="none" stroke="currentColor" stroke-width="1.7" stroke-linecap="round" stroke-linejoin="round"><path d="M4 6h16M4 12h16M4 18h16"/></g></symbol><symbol id="pb-phone" viewBox="0 0 24 24"><g fill="none" stroke="currentColor" stroke-width="1.7" stroke-linecap="round" stroke-linejoin="round"><rect x="6" y="2" width="12" height="20" rx="3"/><path d="M10 5h4m-3 14h2"/></g></symbol><symbol id="pb-monitor" viewBox="0 0 24 24"><g fill="none" stroke="currentColor" stroke-width="1.7" stroke-linecap="round" stroke-linejoin="round"><rect x="2" y="3" width="20" height="14" rx="2"/><path d="M12 17v4m-5 0h10"/></g></symbol><symbol id="pb-waveform" viewBox="0 0 24 24"><g fill="none" stroke="currentColor" stroke-width="1.7" stroke-linecap="round" stroke-linejoin="round"><path d="M3 10v4m4-7v10m5-14v18m5-14v10m4-7v4"/></g></symbol><symbol id="pb-browser" viewBox="0 0 24 24"><g fill="none" stroke="currentColor" stroke-width="1.7" stroke-linecap="round" stroke-linejoin="round"><circle cx="12" cy="12" r="10"/><ellipse cx="12" cy="12" rx="4" ry="10"/><path d="M2 12h20"/></g></symbol><symbol id="pb-browser-window" viewBox="0 0 24 24"><g fill="none" stroke="currentColor" stroke-width="1.7" stroke-linecap="round" stroke-linejoin="round"><rect x="2" y="3" width="20" height="18" rx="3"/><path d="M2 8h20M6 5.5h.01m3 0h.01M6 12h7m-7 4h11"/></g></symbol><symbol id="pb-settings" viewBox="0 0 24 24"><g fill="none" stroke="currentColor" stroke-width="1.7" stroke-linecap="round" stroke-linejoin="round"><path d="m9 3 1-1h4l1 1v2l2 1 2-1 2 3-1 2v2l1 2-2 3-2-1-2 1v2l-1 1h-4l-1-1v-2l-2-1-2 1-2-3 1-2v-2L3 8l2-3 2 1 2-1Z"/><circle cx="12" cy="11" r="3"/></g></symbol><symbol id="pb-help" viewBox="0 0 24 24"><g fill="none" stroke="currentColor" stroke-width="1.7" stroke-linecap="round" stroke-linejoin="round"><circle cx="12" cy="12" r="10"/><path d="M9 9a3 3 0 1 1 5 2c-1 1-2 1-2 3m0 3h.01"/></g></symbol><symbol id="pb-wifi" viewBox="0 0 24 24"><g fill="none" stroke="currentColor" stroke-width="1.7" stroke-linecap="round" stroke-linejoin="round"><path d="M2 8a16 16 0 0 1 20 0M5 12a11 11 0 0 1 14 0m-11 4a5 5 0 0 1 8 0"/><circle cx="12" cy="20" r=".8"/></g></symbol><symbol id="pb-chevron-down" viewBox="0 0 24 24"><g fill="none" stroke="currentColor" stroke-width="1.7" stroke-linecap="round" stroke-linejoin="round"><path d="m5 9 7 7 7-7"/></g></symbol><symbol id="pb-chevron-right" viewBox="0 0 24 24"><g fill="none" stroke="currentColor" stroke-width="1.7" stroke-linecap="round" stroke-linejoin="round"><path d="m9 5 7 7-7 7"/></g></symbol><symbol id="pb-chevron-left" viewBox="0 0 24 24"><g fill="none" stroke="currentColor" stroke-width="1.7" stroke-linecap="round" stroke-linejoin="round"><path d="m15 5-7 7 7 7"/></g></symbol><symbol id="pb-arrow-right" viewBox="0 0 24 24"><g fill="none" stroke="currentColor" stroke-width="1.7" stroke-linecap="round" stroke-linejoin="round"><path d="M3 12h18m-6-6 6 6-6 6"/></g></symbol><symbol id="pb-arrow-left" viewBox="0 0 24 24"><g fill="none" stroke="currentColor" stroke-width="1.7" stroke-linecap="round" stroke-linejoin="round"><path d="M21 12H3m6-6-6 6 6 6"/></g></symbol><symbol id="pb-arrow-up" viewBox="0 0 24 24"><g fill="none" stroke="currentColor" stroke-width="1.7" stroke-linecap="round" stroke-linejoin="round"><path d="M12 21V3m-6 6 6-6 6 6"/></g></symbol><symbol id="pb-arrow-down" viewBox="0 0 24 24"><g fill="none" stroke="currentColor" stroke-width="1.7" stroke-linecap="round" stroke-linejoin="round"><path d="M12 3v18m-6-6 6 6 6-6"/></g></symbol><symbol id="pb-plus" viewBox="0 0 24 24"><g fill="none" stroke="currentColor" stroke-width="1.7" stroke-linecap="round" stroke-linejoin="round"><path d="M12 4v16M4 12h16"/></g></symbol><symbol id="pb-pause" viewBox="0 0 24 24"><g fill="none" stroke="currentColor" stroke-width="1.7" stroke-linecap="round" stroke-linejoin="round"><path d="M8 4v16M16 4v16"/></g></symbol><symbol id="pb-stop" viewBox="0 0 24 24"><g fill="none" stroke="currentColor" stroke-width="1.7" stroke-linecap="round" stroke-linejoin="round"><rect x="5" y="5" width="14" height="14" rx="2"/></g></symbol><symbol id="pb-reset" viewBox="0 0 24 24"><g fill="none" stroke="currentColor" stroke-width="1.7" stroke-linecap="round" stroke-linejoin="round"><path d="M3 10a9 9 0 1 1 1 8M3 4v6h6"/></g></symbol><symbol id="pb-cursor" viewBox="0 0 24 24"><g fill="none" stroke="currentColor" stroke-width="1.7" stroke-linecap="round" stroke-linejoin="round"><path d="m4 2 16 12-8 1 4 7-3 1-4-7-5 5Z"/></g></symbol><symbol id="pb-zone" viewBox="0 0 24 24"><g fill="none" stroke="currentColor" stroke-width="1.7" stroke-linecap="round" stroke-linejoin="round"><path d="M8 3H5a2 2 0 0 0-2 2v3m13-5h3a2 2 0 0 1 2 2v3M3 16v3a2 2 0 0 0 2 2h3m13-5v3a2 2 0 0 1-2 2h-3"/></g></symbol><symbol id="pb-lock" viewBox="0 0 24 24"><g fill="none" stroke="currentColor" stroke-width="1.7" stroke-linecap="round" stroke-linejoin="round"><rect x="5" y="10" width="14" height="12" rx="2"/><path d="M8 10V6a4 4 0 0 1 8 0v4m-4 5v3"/></g></symbol><symbol id="pb-headphones" viewBox="0 0 24 24"><g fill="none" stroke="currentColor" stroke-width="1.7" stroke-linecap="round" stroke-linejoin="round"><path d="M3 14v-3a9 9 0 0 1 18 0v3"/><rect x="2" y="12" width="5" height="9" rx="2"/><rect x="17" y="12" width="5" height="9" rx="2"/></g></symbol><symbol id="pb-speaker" viewBox="0 0 24 24"><g fill="none" stroke="currentColor" stroke-width="1.7" stroke-linecap="round" stroke-linejoin="round"><path d="m10 4-5 5H2v6h3l5 5Z"/><path d="M14 8a6 6 0 0 1 0 8m4-11a10 10 0 0 1 0 14"/></g></symbol><symbol id="pb-mute" viewBox="0 0 24 24"><g fill="none" stroke="currentColor" stroke-width="1.7" stroke-linecap="round" stroke-linejoin="round"><path d="m10 4-5 5H2v6h3l5 5Z"/><path d="m16 9 6 6m-6 0 6-6"/></g></symbol><symbol id="pb-check-circle" viewBox="0 0 24 24"><g fill="none" stroke="currentColor" stroke-width="1.7" stroke-linecap="round" stroke-linejoin="round"><circle cx="12" cy="12" r="10"/><path d="m7 12 3 3 7-7"/></g></symbol><symbol id="pb-search" viewBox="0 0 24 24"><g fill="none" stroke="currentColor" stroke-width="1.7" stroke-linecap="round" stroke-linejoin="round"><circle cx="10" cy="10" r="7"/><path d="m15 15 6 6"/></g></symbol><symbol id="pb-folder" viewBox="0 0 24 24"><g fill="none" stroke="currentColor" stroke-width="1.7" stroke-linecap="round" stroke-linejoin="round"><path d="M3 5h6l2 3h10v12H3Z"/><path d="M3 8h8"/></g></symbol><symbol id="pb-folder-open" viewBox="0 0 24 24"><g fill="none" stroke="currentColor" stroke-width="1.7" stroke-linecap="round" stroke-linejoin="round"><path d="M3 8V5h6l2 3h9v3M3 11h19l-4 9H2Z"/></g></symbol><symbol id="pb-file" viewBox="0 0 24 24"><g fill="none" stroke="currentColor" stroke-width="1.7" stroke-linecap="round" stroke-linejoin="round"><path d="M5 2h9l5 5v15H5Z"/><path d="M14 2v6h5"/></g></symbol><symbol id="pb-file-text" viewBox="0 0 24 24"><g fill="none" stroke="currentColor" stroke-width="1.7" stroke-linecap="round" stroke-linejoin="round"><path d="M5 2h9l5 5v15H5Z"/><path d="M14 2v6h5M8 12h8m-8 4h8"/></g></symbol><symbol id="pb-image" viewBox="0 0 24 24"><g fill="none" stroke="currentColor" stroke-width="1.7" stroke-linecap="round" stroke-linejoin="round"><rect x="2" y="3" width="20" height="18" rx="2"/><circle cx="8" cy="8" r="2"/><path d="m2 17 6-5 4 4 4-5 6 7"/></g></symbol><symbol id="pb-archive" viewBox="0 0 24 24"><g fill="none" stroke="currentColor" stroke-width="1.7" stroke-linecap="round" stroke-linejoin="round"><path d="M5 2h9l5 5v15H5Z"/><path d="M14 2v6h5M10 3v2m0 2v2m0 2v2"/><rect x="9" y="16" width="3" height="3" rx=".5"/></g></symbol><symbol id="pb-upload" viewBox="0 0 24 24"><g fill="none" stroke="currentColor" stroke-width="1.7" stroke-linecap="round" stroke-linejoin="round"><path d="M12 17V3m-5 5 5-5 5 5M3 16v5h18v-5"/></g></symbol><symbol id="pb-transfer" viewBox="0 0 24 24"><g fill="none" stroke="currentColor" stroke-width="1.7" stroke-linecap="round" stroke-linejoin="round"><path d="M2 7h19m-4-4 4 4-4 4M22 17H3m4-4-4 4 4 4"/></g></symbol><symbol id="pb-external" viewBox="0 0 24 24"><g fill="none" stroke="currentColor" stroke-width="1.7" stroke-linecap="round" stroke-linejoin="round"><path d="M14 3h7v7m0-7L10 14m0-11H3v18h18v-7"/></g></symbol><symbol id="pb-minimize" viewBox="0 0 24 24"><g fill="none" stroke="currentColor" stroke-width="1.7" stroke-linecap="round" stroke-linejoin="round"><path d="M5 12h14"/></g></symbol><symbol id="pb-maximize" viewBox="0 0 24 24"><g fill="none" stroke="currentColor" stroke-width="1.7" stroke-linecap="round" stroke-linejoin="round"><rect x="4" y="4" width="16" height="16" rx="1.5"/></g></symbol><symbol id="pb-more" viewBox="0 0 24 24"><g fill="none" stroke="currentColor" stroke-width="1.7" stroke-linecap="round" stroke-linejoin="round"><circle cx="12" cy="5" r="1"/><circle cx="12" cy="12" r="1"/><circle cx="12" cy="19" r="1"/></g></symbol><symbol id="pb-app-gmail" viewBox="0 0 24 24"><path d="M3 19V7l4 3v9" fill="#4285f4"/><path d="M17 19V10l4-3v12" fill="#34a853"/><path d="M3 7V5q0-2 2-1l7 5 7-5q2-1 2 1v2l-9 7Z" fill="#ea4335"/><path d="M3 5v5l4 3V7Z" fill="#c5221f"/><path d="M21 5v5l-4 3V7Z" fill="#fbbc04"/></symbol><symbol id="pb-app-sheets" viewBox="0 0 24 24"><path d="M5 2h10l5 5v15H5Z" fill="#0f9d58"/><path d="M15 2v5h5" fill="#87ceac"/><path d="M8 11h9v7H8Zm0 3h9m-5-3v7" fill="none" stroke="white" stroke-width="1.2"/></symbol><symbol id="pb-app-drive" viewBox="0 0 24 24"><path d="m8 2 8 14H7L2 16Z" fill="#34a853"/><path d="m8 2 8 0 8 14h-8Z" fill="#fbbc04"/><path d="m2 16 5 7h13l4-7Z" fill="#4285f4"/></symbol><symbol id="pb-app-calendar" viewBox="0 0 24 24"><path d="M3 3h18v18H3Z" fill="#4285f4"/><path d="M7 7h10v10H7Z" fill="#fff"/><path d="M3 3h5v5H3Z" fill="#1967d2"/><path d="m16 21 5-5v5" fill="#34a853"/><text x="12" y="15" text-anchor="middle" font-family="Arial" font-size="7" fill="#4285f4">31</text></symbol><symbol id="pb-app-keep" viewBox="0 0 24 24"><path d="M4 2h16v20H4Z" fill="#fbbc04"/><path d="M9 16h6m-5 3h4" stroke="white" fill="none"/><path d="M8 9a4 4 0 1 1 8 0c0 3-2 3-2 5h-4c0-2-2-2-2-5" fill="white"/></symbol><symbol id="pb-app-tasks" viewBox="0 0 24 24"><path d="M19 13a8 8 0 1 1-8-9" stroke="#4285f4" stroke-width="3" fill="none"/><path d="m8 10 4 4 9-10" stroke="#4285f4" stroke-width="3" fill="none"/></symbol><symbol id="pb-app-google" viewBox="0 0 24 24"><path d="M21 12h-9v4h5a6 6 0 0 1-5 3" fill="none" stroke="#4285f4" stroke-width="4"/><path d="M12 20a8 8 0 0 1-7-4" fill="none" stroke="#34a853" stroke-width="4"/><path d="M5 16a8 8 0 0 1 0-8" fill="none" stroke="#fbbc04" stroke-width="4"/><path d="M5 8a8 8 0 0 1 13-2" fill="none" stroke="#ea4335" stroke-width="4"/></symbol><symbol id="pb-brand" viewBox="0 0 64 64"><path d="M16 23H31Q40 23 40 32V48Q40 57 31 57H16Q7 57 7 48V32Q7 23 16 23Z" fill="none" stroke="#FF2D9A" stroke-width="5.6" stroke-linejoin="round"/><path d="M33 7H48Q57 7 57 16V32Q57 41 48 41H33Q24 41 24 32V16Q24 7 33 7Z" fill="none" stroke="#FF2D9A" stroke-width="5.6" stroke-linejoin="round"/></symbol></defs></svg>