<svg xmlns="http://www.w3.org/2000/svg"><symbol id="arrow" viewBox="0 0 24 24" fill="none" stroke="currentColor" stroke-width="1.7" stroke-linecap="round" stroke-linejoin="round"><path d="M5 12h14M13 6l6 6-6 6"/></symbol><symbol id="download" viewBox="0 0 24 24" fill="none" stroke="currentColor" stroke-width="1.7" stroke-linecap="round" stroke-linejoin="round"><path d="M12 3v12m-5-5 5 5 5-5M4 16v5h16v-5"/></symbol><symbol id="eye" viewBox="0 0 24 24" fill="none" stroke="currentColor" stroke-width="1.7" stroke-linecap="round" stroke-linejoin="round"><path d="M2 12s3-7 10-7 10 7 10 7-3 7-10 7S2 12 2 12Z"/><circle cx="12" cy="12" r="3"/></symbol><symbol id="mail" viewBox="0 0 24 24" fill="none" stroke="currentColor" stroke-width="1.7" stroke-linecap="round" stroke-linejoin="round"><rect x="3" y="5" width="18" height="14" rx="2"/><path d="m3 6 9 7 9-7"/></symbol><symbol id="check" viewBox="0 0 24 24" fill="none" stroke="currentColor" stroke-width="1.7" stroke-linecap="round" stroke-linejoin="round"><path d="m5 12 4 4 10-10"/></symbol><symbol id="user" viewBox="0 0 24 24" fill="none" stroke="currentColor" stroke-width="1.7" stroke-linecap="round" stroke-linejoin="round"><circle cx="12" cy="8" r="4"/><path d="M4 21v-2a8 8 0 0 1 16 0v2"/></symbol><symbol id="menu" viewBox="0 0 24 24" fill="none" stroke="currentColor" stroke-width="1.7" stroke-linecap="round" stroke-linejoin="round"><path d="M4 6h16M4 12h16M4 18h16"/></symbol><symbol id="usb" viewBox="0 0 24 24" fill="none" stroke="currentColor" stroke-width="1.7" stroke-linecap="round" stroke-linejoin="round"><path d="M12 21V3m-3 3 3-3 3 3M7 10v4l5 3m5-7v4l-5 3"/><circle cx="7" cy="8" r="2"/><rect x="15" y="6" width="4" height="4"/></symbol></svg>