<svg xmlns="http://www.w3.org/2000/svg">
<symbol id="mouse" viewBox="0 0 24 24" fill="none" stroke="currentColor" stroke-width="1.6" stroke-linecap="round" stroke-linejoin="round"><rect x="6" y="2" width="12" height="20" rx="6"/><path d="M12 2v7"/></symbol>
<symbol id="keyboard" viewBox="0 0 24 24" fill="none" stroke="currentColor" stroke-width="1.6" stroke-linecap="round" stroke-linejoin="round"><rect x="2" y="5" width="20" height="14" rx="3"/><path d="M6 9h.01M10 9h.01M14 9h.01M18 9h.01M6 12h.01M10 12h.01M14 12h.01M18 12h.01M7 15h10"/></symbol>
<symbol id="magnet" viewBox="0 0 24 24" fill="none" stroke="currentColor" stroke-width="1.6" stroke-linecap="round" stroke-linejoin="round"><path d="M4 3h5v9a3 3 0 0 0 6 0V3h5v9a8 8 0 0 1-16 0Z"/><path d="M4 7h5m6 0h5"/></symbol>
<symbol id="screens" viewBox="0 0 24 24" fill="none" stroke="currentColor" stroke-width="1.6" stroke-linecap="round" stroke-linejoin="round"><rect x="2" y="4" width="13" height="11" rx="2"/><path d="M8 15v4m-4 0h8"/><rect x="18" y="7" width="4" height="13" rx="1"/></symbol>
<symbol id="star" viewBox="0 0 24 24" fill="none" stroke="currentColor" stroke-width="1.6" stroke-linecap="round" stroke-linejoin="round"><path d="m12 3 2.8 5.8 6.4.9-4.6 4.5 1.1 6.3-5.7-3-5.7 3 1.1-6.3-4.6-4.5 6.4-.9Z"/></symbol>
<symbol id="shield" viewBox="0 0 24 24" fill="none" stroke="currentColor" stroke-width="1.6" stroke-linecap="round" stroke-linejoin="round"><path d="m12 2 8 3v6c0 5-8 11-8 11S4 16 4 11V5Z"/><path d="m8 11 3 3 5-6"/></symbol>
<symbol id="box" viewBox="0 0 24 24" fill="none" stroke="currentColor" stroke-width="1.6" stroke-linecap="round" stroke-linejoin="round"><path d="m12 2 9 5v10l-9 5-9-5V7Z"/><path d="m3 7 9 5 9-5m-9 5v10M8 4l9 5"/></symbol>
</svg>
